# xmcd
#
# Track frame offsets: 
#        150
#        16800
#        39900
#        60750
#        79225
#        99200
#
# Disc length: 1564 seconds
#
# Revision: 2
# Processed by: cddbd v1.5.2PL0 Copyright (c) Steve Scherf et al.
# Submitted via: ExactAudioCopy v1.0b3
#
DISCID=31061a06
DTITLE=Smoove D's - Loverbeast
DYEAR=1997
DGENRE=Rap
TTITLE0=Loverbeast (Radio Edit)
TTITLE1=Loverbeast (G-RMX)
TTITLE2=Loverbeast (Kay Mason RMX)
TTITLE3=Hunting Season
TTITLE4=Loverbeast (Extended Version)
TTITLE5=Loverbeast (Instrumental)
EXTD=
EXTT0=
EXTT1=
EXTT2=
EXTT3=
EXTT4=
EXTT5=
PLAYORDER=
